<?xml version="1.0" encoding="UTF-8"?>
<svg xmlns="http://www.w3.org/2000/svg" xmlns:xlink="http://www.w3.org/1999/xlink" width="20px" height="17px" viewBox="0 0 19 17" version="1.1">
<g id="surface1">
<path style=" stroke:none;fill-rule:nonzero;fill:rgb(0%,0%,0%);fill-opacity:1;" d="M 0.828125 0.0898438 C 0.464844 0.253906 0.0976562 0.800781 0.0976562 1.171875 C 0.0976562 1.417969 0.523438 2.378906 1.519531 4.433594 L 2.9375 7.355469 L 7.28125 7.902344 C 9.675781 8.195312 11.628906 8.46875 11.628906 8.5 C 11.628906 8.53125 9.675781 8.804688 7.28125 9.097656 L 2.9375 9.644531 L 1.519531 12.566406 C -0.0703125 15.835938 -0.109375 15.957031 0.421875 16.542969 C 1.035156 17.234375 0.523438 17.40625 9.945312 13.234375 C 19.265625 9.105469 18.871094 9.320312 18.871094 8.4375 C 18.871094 8.085938 18.8125 7.945312 18.578125 7.710938 C 18.371094 7.5 15.835938 6.34375 9.953125 3.765625 C 5.371094 1.75 1.496094 0.0820312 1.332031 0.0507812 C 1.171875 0.03125 0.945312 0.0390625 0.828125 0.0898438 Z M 0.828125 0.0898438 "/>
</g>
</svg>
